<svg width="106" height="32" viewBox="0 0 106 32" fill="white" xmlns="http://www.w3.org/2000/svg"><path d="M46.4531 8C51.3184 8 54.4 11.386 54.4 15.9775C54.4 20.6168 51.2263 24 46.3358 24C41.4454 24 38.4 20.614 38.4 16.0225C38.4 11.372 41.5626 8 46.4531 8ZM46.4056 21.2799C49.3449 21.2799 51.1509 19.3382 51.1509 16.0253C51.1509 12.6533 49.317 10.7229 46.3805 10.7229C43.444 10.7229 41.6352 12.6646 41.6352 15.9775C41.6324 19.3354 43.4663 21.2771 46.4056 21.2771V21.2799Z" fill="#fff"></path><path d="M59.8275 21.426C59.8275 21.9547 59.8275 22.3661 59.5952 22.6659C59.363 22.9656 58.9649 23.1482 58.3151 23.1482C57.6654 23.1482 57.2673 22.9629 57.0323 22.6659C56.7973 22.3689 56.8001 21.9765 56.8001 21.426V9.21534C56.8001 8.436 57.3143 8 58.3622 8C59.4681 8 59.9436 8.52592 60.574 9.32979L67.3726 17.8454V9.69766C67.3726 9.16902 67.3726 8.77934 67.6048 8.48232C67.8371 8.1853 68.2352 8 68.8877 8C69.5402 8 69.9356 8.18257 70.1678 8.48232C70.4 8.78207 70.4 9.16902 70.4 9.69766V21.9601C70.4 22.764 69.8886 23.2 68.9789 23.2C68.0693 23.2 67.5827 22.7395 66.9081 21.9138L59.8275 13.1938V21.426Z" fill="#fff"></path><path d="M84.015 21.702C82.1615 22.831 79.8153 23.2 77.1699 23.2C75.5657 23.2 74.4043 23.0606 73.7385 22.831C72.9232 22.533 72.8 22.0492 72.8 21.2182V10.0078C72.8 9.01549 73.02 8.50978 74.3808 8.23369C75.4651 8.05766 76.5652 7.98076 77.6656 8.00407C80.3051 8.00407 82.4577 8.30203 84.2115 9.43099C85.9155 10.5244 87.2001 12.4379 87.2001 15.5105C87.2001 18.8235 85.6691 20.6906 84.015 21.702ZM76.1346 20.4828C76.6663 20.5499 77.2024 20.581 77.7389 20.5758C79.5425 20.5758 83.8156 20.2751 83.8156 15.6553C83.8156 13.6762 83.0267 12.3751 82.0119 11.6507C80.9972 10.9263 79.7156 10.6365 77.906 10.6365C77.3112 10.6275 76.7166 10.6659 76.1288 10.7513L76.1346 20.4828Z" fill="#fff"></path><path d="M97.66 8C102.523 8 105.6 11.386 105.6 15.9775C105.6 20.6168 102.428 24 97.54 24C92.6522 24 89.6 20.628 89.6 16.0253C89.6 11.372 92.7721 8 97.66 8ZM97.6126 21.2799C100.55 21.2799 102.355 19.3382 102.355 16.0253C102.355 12.6533 100.522 10.7229 97.5847 10.7229C94.6469 10.7229 92.8419 12.6646 92.8419 15.9775C92.8419 19.3354 94.6748 21.2771 97.6126 21.2771V21.2799Z" fill="#fff"></path><path d="M29.8852 23.9171C30.3014 23.192 30.6579 22.4341 30.9511 21.6511L20.6064 20.744C21.6894 19.6896 22.3795 18.2964 22.5621 16.7954C22.7446 15.2945 22.4087 13.7762 21.6101 12.4927C20.8115 11.2091 19.5982 10.2376 18.1718 9.73928C16.7453 9.241 15.1914 9.24598 13.7681 9.7534C12.3449 10.2608 11.1379 11.2401 10.3475 12.5288C9.55711 13.8174 9.23093 15.3378 9.42311 16.8375C9.61529 18.3373 10.3143 19.7261 11.404 20.7735C12.4937 21.8208 13.9086 22.4637 15.4137 22.5953L29.8852 23.9171ZM15.6088 20.3689C14.4787 20.2787 13.4274 19.7544 12.675 18.9058C11.9226 18.0572 11.5276 16.9502 11.5727 15.8166C11.6178 14.683 12.0994 13.6108 12.9168 12.8247C13.7342 12.0387 14.8238 11.5996 15.9575 11.5996C17.0911 11.5996 18.1807 12.0387 18.9981 12.8247C19.8155 13.6108 20.2972 14.683 20.3422 15.8166C20.3873 16.9502 19.9923 18.0572 19.2399 18.9058C18.4875 19.7544 17.4362 20.2787 16.3062 20.3689C16.1223 20.381 15.9379 20.381 15.7541 20.3689C15.7069 20.3689 15.6559 20.3689 15.6088 20.3689Z" fill="#fff"></path><path d="M26.1944 28.3112C27.0134 27.6348 27.7634 26.8788 28.4331 26.0541L15.4418 24.9148C15.3653 24.9148 15.2862 24.9058 15.211 24.8995C15.1358 24.8931 15.0568 24.8854 14.9828 24.874L14.8885 24.8663C13.1488 24.6505 11.511 23.9271 10.1792 22.7863C8.84736 21.6455 7.88046 20.1377 7.39892 18.4508C6.91738 16.7639 6.94251 14.9725 7.47116 13.2998C7.99981 11.6271 9.00862 10.1471 10.3719 9.04414C11.7352 7.94119 13.3926 7.26408 15.1377 7.09719C16.8828 6.9303 18.6384 7.28101 20.1857 8.10561C21.733 8.93022 23.0037 10.1923 23.8393 11.7345C24.6749 13.2767 25.0386 15.0309 24.8851 16.7785C24.7566 18.2865 24.2435 19.7363 23.3947 20.9889L26.072 21.2224C27.186 19.073 27.5844 16.6236 27.2088 14.2316C26.8333 11.8396 25.7036 9.6304 23.9846 7.92645C22.2657 6.2225 20.0475 5.11304 17.6538 4.76004C15.2602 4.40704 12.8165 4.82898 10.6794 5.96427C8.5424 7.09956 6.82393 8.88874 5.7749 11.0706C4.72587 13.2525 4.40122 15.7128 4.84834 18.0924C5.29546 20.4721 6.49094 22.6463 8.26025 24.2979C10.0296 25.9494 12.2801 26.9917 14.6832 27.2726L26.1944 28.3112Z" fill="#fff"></path><path d="M14.5952 31.9372C17.5384 32.1997 20.4964 31.6359 23.1372 30.3092C23.1575 30.3015 23.1729 30.2888 23.192 30.2798L14.798 29.5436C11.9306 29.294 9.21628 28.1404 7.04569 26.2489C4.8751 24.3573 3.36016 21.8254 2.71889 19.0174C2.07762 16.2094 2.3431 13.2702 3.47711 10.6229C4.61112 7.97547 6.55519 5.75641 9.02953 4.28503C11.5039 2.81366 14.3809 2.16584 17.2465 2.43482C20.1121 2.7038 22.8186 3.87571 24.9764 5.78188C27.1342 7.68804 28.632 10.2302 29.2543 13.0424C29.8766 15.8547 29.5913 18.792 28.4395 21.4316L30.9473 21.6511C32.1179 18.5474 32.2955 15.1563 31.4557 11.9471C30.6159 8.73793 28.8002 5.8693 26.2597 3.7382C23.7192 1.60711 20.5797 0.318929 17.2755 0.0519227C13.9714 -0.215083 10.666 0.552288 7.81675 2.24784C4.96753 3.9434 2.71536 6.48331 1.37191 9.51608C0.0284621 12.5488 -0.339836 15.9245 0.317982 19.176C0.9758 22.4274 2.62721 25.3938 5.04368 27.6648C7.46015 29.9357 10.5222 31.3988 13.8061 31.8517C13.9591 31.8747 14.1184 31.8925 14.2727 31.9066C14.3798 31.918 14.4869 31.927 14.5952 31.9372Z" fill="#fff"></path><path d="M24.8851 16.7785C24.8787 16.8538 24.8723 16.9329 24.8608 17.0082L24.9004 16.5489C24.8991 16.6242 24.8915 16.7033 24.8851 16.7785Z" fill="#fff"></path></svg>